<svg width="8" height="14" viewBox="0 0 8 14" fill="none" xmlns="http://www.w3.org/2000/svg">
<path fill-rule="evenodd" clip-rule="evenodd" d="M0.30542 6.11623C0.10986 6.3094 -1.8905e-07 6.57135 -1.8905e-07 6.84449C-1.8905e-07 7.11762 0.10986 7.37958 0.30542 7.57274L6.20652 13.3998C6.30275 13.4982 6.41786 13.5767 6.54513 13.6307C6.67239 13.6846 6.80928 13.7131 6.94778 13.7142C7.08629 13.7154 7.22365 13.6894 7.35185 13.6376C7.48005 13.5858 7.59652 13.5093 7.69447 13.4126C7.79241 13.3159 7.86987 13.2009 7.92232 13.0743C7.97477 12.9477 8.00116 12.812 7.99996 12.6753C7.99876 12.5385 7.96998 12.4033 7.91531 12.2777C7.86064 12.152 7.78117 12.0383 7.68154 11.9433L2.51794 6.84449L7.68154 1.74566C7.87156 1.55139 7.9767 1.29119 7.97432 1.02111C7.97195 0.751034 7.86224 0.492681 7.66883 0.301699C7.47542 0.110716 7.21379 0.00238586 6.94028 3.89392e-05C6.66677 -0.00230798 6.40326 0.101517 6.20652 0.289151L0.30542 6.11623Z" fill="#045666"/>
</svg>
