<svg width="18" height="26" viewBox="0 0 18 26" fill="none" xmlns="http://www.w3.org/2000/svg">
<path d="M9 12.2143C8.14752 12.2143 7.32995 11.8756 6.72716 11.2728C6.12436 10.67 5.78571 9.85248 5.78571 9C5.78571 8.14752 6.12436 7.32995 6.72716 6.72716C7.32995 6.12436 8.14752 5.78571 9 5.78571C9.85248 5.78571 10.67 6.12436 11.2728 6.72716C11.8756 7.32995 12.2143 8.14752 12.2143 9C12.2143 9.4221 12.1311 9.84008 11.9696 10.2301C11.8081 10.62 11.5713 10.9744 11.2728 11.2728C10.9744 11.5713 10.62 11.8081 10.2301 11.9696C9.84008 12.1311 9.42211 12.2143 9 12.2143ZM9 0C6.61305 0 4.32387 0.948211 2.63604 2.63604C0.948211 4.32387 0 6.61305 0 9C0 15.75 9 25.7143 9 25.7143C9 25.7143 18 15.75 18 9C18 6.61305 17.0518 4.32387 15.364 2.63604C13.6761 0.948211 11.3869 0 9 0Z" fill="#F37900"/>
</svg>
