<svg width="43" height="41" viewBox="0 0 43 41" fill="none" xmlns="http://www.w3.org/2000/svg">
<path d="M17.9865 21.47C20.2167 14.7164 22.4133 8.135 24.5469 1.5326C24.822 0.68 25.2 0.4406 26.0652 0.449C31.3467 0.491 36.6282 0.469999 42.0252 0.469999C41.2104 3.1202 40.425 5.7074 39.6228 8.2883C36.3678 18.7407 33.1163 29.1952 29.8683 39.6518C29.5995 40.5254 29.3076 40.7375 28.4592 40.3805C27.5885 40.0212 26.6875 39.7401 25.767 39.5405C24.927 39.3578 24.8724 39.0344 25.116 38.2574C28.4361 27.6797 31.71 17.0852 35.0259 6.5075C35.3325 5.5352 35.1519 5.3378 34.1859 5.3861C32.6151 5.4617 31.0359 5.4554 29.4651 5.3861C28.6839 5.3504 28.3962 5.6402 28.1652 6.35C25.4478 14.6681 22.6842 22.9694 19.9752 31.2896C19.7316 32.0351 19.3998 32.3123 18.6564 32.1443C18.3855 32.0834 18.1041 32.0603 17.8164 32.0246C16.9932 31.9196 15.9033 32.222 15.4161 31.6403C14.9289 31.0586 15.0696 30.0506 14.91 29.24C13.5744 21.89 10.395 15.5606 4.55695 10.7285C3.53184 9.82849 2.38432 9.07833 1.14865 8.5004C0.629954 8.2778 0.556454 8.0594 0.821054 7.5638C1.36075 6.56 1.86895 5.51 2.30995 4.46C2.56615 3.8552 2.84965 3.8048 3.39775 4.0799C6.38605 5.5709 8.88505 7.6814 11.1174 10.13C13.9659 13.2646 16.1942 16.9109 17.6841 20.8757C17.7471 21.0269 17.8374 21.176 17.9865 21.47Z" fill="#0F94AE"/>
</svg>
