<svg width="8" height="14" viewBox="0 0 8 14" fill="none" xmlns="http://www.w3.org/2000/svg">
<path fill-rule="evenodd" clip-rule="evenodd" d="M7.69458 6.11623C7.89014 6.3094 8 6.57135 8 6.84449C8 7.11762 7.89014 7.37958 7.69458 7.57274L1.79348 13.3998C1.69725 13.4982 1.58214 13.5767 1.45487 13.6307C1.32761 13.6846 1.19072 13.7131 1.05222 13.7142C0.913706 13.7154 0.776345 13.6894 0.648146 13.6376C0.519946 13.5858 0.403476 13.5093 0.305532 13.4126C0.207587 13.3159 0.13013 13.2009 0.0776796 13.0743C0.0252291 12.9477 -0.00116422 12.812 3.93863e-05 12.6753C0.00124299 12.5385 0.0300196 12.4033 0.0846901 12.2777C0.139361 12.152 0.21883 12.0383 0.318461 11.9433L5.48206 6.84449L0.318461 1.74566C0.128443 1.55139 0.0232993 1.29119 0.0256761 1.02111C0.0280528 0.751034 0.13776 0.492681 0.331168 0.301699C0.524577 0.110716 0.786212 0.00238586 1.05972 3.89392e-05C1.33323 -0.00230798 1.59674 0.101517 1.79348 0.289151L7.69458 6.11623Z" fill="#045666"/>
</svg>
