<svg width="133" height="123" viewBox="0 0 133 123" fill="none" xmlns="http://www.w3.org/2000/svg">
<circle cx="61.5" cy="61.5" r="61.5" fill="#D9D9D9"/>
<g clip-path="url(#clip0_4_40)">
<path d="M132.247 25.5905C132.26 25.117 132.223 24.6434 132.137 24.1775C131.545 21.4428 129.46 19.9046 126.331 19.902H56.2781C54.3489 19.902 52.4197 19.8734 50.4931 19.902C47.0779 19.9672 44.9376 22.1571 44.9271 25.5384C44.9271 27.8847 44.9089 30.2076 44.9271 32.5435C44.9271 33.1092 44.7864 33.2969 44.2024 33.2786C42.8155 33.2369 41.4285 33.2552 40.0312 33.2786C36.5456 33.3073 34.3557 35.5155 34.3505 39.0141V104.594C34.3505 106.236 34.8302 107.644 36.0216 108.788C37.213 109.933 38.699 110.246 40.3179 110.246C51.4838 110.225 62.6523 110.246 73.8181 110.217C74.5846 110.217 74.8609 110.366 74.8401 111.2C74.7723 113.262 74.8114 115.327 74.8192 117.391C74.8192 118.784 75.2494 119.216 76.6441 119.216H100.603C101.924 119.216 102.36 118.76 102.365 117.431C102.365 115.345 102.409 113.233 102.349 111.137C102.326 110.342 102.587 110.201 103.319 110.207C107.652 110.24 111.982 110.256 116.313 110.207C119.522 110.175 121.688 107.933 121.704 104.732C121.717 102.365 121.73 99.9948 121.691 97.6277C121.691 96.9837 121.878 96.8273 122.491 96.8456C123.878 96.8899 125.265 96.8795 126.662 96.8456C130.127 96.7856 132.273 94.6113 132.273 91.157C132.261 69.3068 132.252 47.4513 132.247 25.5905ZM47.5993 25.1343C47.5993 23.737 48.6239 22.7332 50.0108 22.6003C50.4123 22.5612 50.8216 22.569 51.2257 22.569H126.151C128.758 22.569 129.621 23.4319 129.621 26.0259C129.621 29.342 129.598 32.6582 129.64 35.9743C129.64 36.7043 129.428 36.8529 128.735 36.8503C112.558 36.8329 96.381 36.8329 80.2053 36.8503C79.937 36.8581 79.6704 36.8042 79.4263 36.6925C79.1822 36.5808 78.967 36.4145 78.7975 36.2063C77.1499 34.457 75.4553 32.7546 73.8103 30.9923C73.4945 30.645 73.1061 30.3715 72.6726 30.1912C72.2391 30.011 71.7713 29.9285 71.3023 29.9495C67.2406 29.9782 63.1789 29.9495 59.1197 29.9495C57.2453 29.9495 56.3302 30.8932 56.3172 32.7651C56.3172 33.9148 56.2937 35.0671 56.3172 36.2167C56.3172 36.7069 56.1634 36.8476 55.6811 36.8424C53.1766 36.8216 50.6721 36.8216 48.1677 36.8424C47.6463 36.8424 47.5498 36.6652 47.5524 36.1959C47.5785 32.5096 47.5498 28.8206 47.5993 25.1343ZM74.8192 103.548C74.8192 104.531 74.7592 105.517 74.8349 106.492C74.9 107.344 74.6993 107.618 73.7634 107.613C66.0492 107.566 58.335 107.586 50.6183 107.586H40.1615C37.9846 107.586 37.0122 106.609 37.0122 104.432V39.2565C37.0122 36.8737 37.9508 35.9248 40.3127 35.9195C41.5641 35.9195 42.8181 35.9665 44.0668 35.9013C44.8124 35.8622 44.9506 36.1385 44.9402 36.819C44.9037 39.5589 44.9245 42.2937 44.9245 45.0415V90.925C44.9245 94.7652 47.031 96.8794 50.8842 96.8821C59.8523 96.8821 68.8178 96.9081 77.786 96.856C78.8288 96.856 79.2694 97.2001 79.4232 98.1308C79.4467 98.2638 79.4701 98.3915 79.4962 98.5297C79.8169 100.19 79.8169 100.19 78.1327 100.198C75.8125 100.209 74.8244 101.207 74.8192 103.548ZM87.2703 76.2527C87.2703 76.7611 86.9314 76.8445 86.6186 77.0348C84.9005 78.0203 84.121 79.8348 84.6112 81.6884C84.8161 82.5695 85.3151 83.3546 86.0259 83.9143C86.7368 84.4739 87.617 84.7748 88.5217 84.7672C89.4245 84.7786 90.3061 84.4931 91.0309 83.9548C91.7558 83.4165 92.2838 82.655 92.5339 81.7874C92.8093 80.8897 92.7605 79.9237 92.396 79.0583C92.0314 78.1929 91.3743 77.4831 90.5395 77.0531C90.3271 76.9665 90.1491 76.8123 90.0331 76.6144C89.9172 76.4164 89.8698 76.1858 89.8982 75.9581C89.9347 74.1671 89.9165 72.3761 89.9243 70.5825C89.9243 70.5277 89.9738 70.4704 90.0077 70.3974C90.3336 70.4521 90.3544 70.7623 90.4717 70.9709L101.226 90.3463C101.531 90.8937 101.588 91.0971 100.874 91.3447C99.1646 91.9209 97.675 93.0106 96.6084 94.465C95.5417 95.9194 94.95 97.6676 94.9141 99.4708C94.8906 100.138 94.6743 100.227 94.0955 100.222C90.4092 100.198 86.7229 100.222 83.0365 100.206C82.6976 100.206 82.304 100.355 82.2805 99.7211C82.1215 95.2709 79.7387 92.4866 75.6039 90.9485L87.0227 70.353L87.2573 70.3974C87.2573 72.3552 87.2416 74.3053 87.2703 76.2527ZM88.5373 79.1204C88.7294 79.1149 88.9207 79.1472 89.1003 79.2156C89.2799 79.2841 89.4442 79.3872 89.5839 79.5191C89.7236 79.6511 89.8359 79.8093 89.9144 79.9847C89.993 80.16 90.0362 80.3492 90.0416 80.5413V80.5647C90.0529 80.9572 89.9089 81.3383 89.641 81.6253C89.373 81.9123 89.0027 82.082 88.6103 82.0977C88.432 82.1138 88.2521 82.0946 88.0812 82.0412C87.9102 81.9879 87.7514 81.9013 87.6139 81.7866C87.4764 81.6718 87.3629 81.5311 87.2798 81.3724C87.1966 81.2138 87.1456 81.0403 87.1295 80.8619C87.1256 80.7968 87.1256 80.7315 87.1295 80.6664C87.1139 80.2768 87.2523 79.8967 87.5148 79.6083C87.7773 79.32 88.1428 79.1466 88.5321 79.1257L88.5373 79.1204ZM98.8377 116.562C95.4251 116.542 92.0099 116.562 88.5973 116.562C85.1847 116.562 81.7695 116.542 78.3543 116.562C77.6556 116.562 77.4393 116.385 77.4523 115.666C77.5201 111.642 77.5548 107.62 77.5566 103.6C77.5566 103.003 77.6765 102.8 78.3387 102.8C85.2004 102.83 92.0655 102.83 98.9341 102.8C99.5311 102.8 99.7527 102.92 99.7475 103.582C99.7162 107.639 99.7162 111.694 99.7475 115.749C99.7475 116.502 99.4555 116.573 98.8507 116.568L98.8377 116.562ZM119.047 104.685C119.034 106.51 118.004 107.553 116.135 107.553C111.804 107.553 107.473 107.559 103.142 107.571C102.545 107.571 102.305 107.467 102.339 106.804C102.399 105.623 102.368 104.437 102.339 103.254C102.313 101.236 101.27 100.198 99.2704 100.172C97.2708 100.146 97.2708 100.11 97.7219 98.1386C97.9382 97.1819 98.358 96.783 99.4295 96.8143C102.508 96.9029 105.587 96.8456 108.669 96.8456C111.849 96.8456 115.03 96.8638 118.21 96.8299C118.867 96.8299 119.068 96.9916 119.055 97.6694C119.032 100.016 119.055 102.362 119.055 104.69L119.047 104.685ZM129.608 90.8677C129.608 93.2661 128.685 94.2073 126.323 94.2073H102.164C101.872 94.2073 101.583 94.1812 101.249 94.1682C101.411 93.8162 101.703 93.8058 101.937 93.725C104.219 92.9429 104.831 91.3474 103.65 89.2174C99.6928 82.0742 95.731 74.9327 91.7648 67.7929C91.3373 67.0265 90.9175 66.2548 90.4796 65.4962C89.5019 63.8094 87.6588 63.7651 86.7202 65.4492C82.2466 73.4667 77.7895 81.4911 73.3489 89.5225C72.3764 91.277 73.0881 92.9976 74.9652 93.6598L75.9845 94.0222C75.6196 94.2829 75.3171 94.2047 75.046 94.2047H50.7851C48.5222 94.2047 47.5707 93.2505 47.5707 91.0058C47.5707 74.1471 47.562 57.2962 47.5446 40.4532C47.5446 39.5694 47.8053 39.4103 48.6082 39.4364C51.111 39.4912 53.6163 39.4651 56.1217 39.4547C57.9987 39.4547 58.9373 38.5135 58.9477 36.6625C58.9477 35.5467 58.9764 34.4283 58.9477 33.3125C58.9294 32.7624 59.0624 32.5643 59.6594 32.5695C63.45 32.5956 67.2397 32.5956 71.0286 32.5695C71.2436 32.5654 71.4567 32.6102 71.6518 32.7005C71.8469 32.7908 72.0189 32.9243 72.1548 33.0909C73.7868 34.809 75.4631 36.4801 77.0639 38.2268C77.4318 38.6423 77.888 38.9704 78.399 39.1869C78.9101 39.4034 79.4631 39.5029 80.0176 39.4781C96.1811 39.4547 112.365 39.4781 128.539 39.4416C129.405 39.4416 129.645 39.6111 129.642 40.5209C129.6 57.3136 129.589 74.1002 129.608 90.8807V90.8677Z" fill="#3B3F42"/>
<path d="M118.39 49.5464C117.224 49.3847 116.038 49.6347 115.036 50.2533C114.035 50.8719 113.28 51.8205 112.903 52.9355C112.676 53.6056 112.381 53.7776 111.711 53.7724C106.435 53.7411 101.155 53.7568 95.8787 53.7568C94.1398 53.7568 94.1398 53.7568 94.1137 52.0335C94.0877 50.1304 93.1413 49.1476 91.246 49.1215C89.4559 49.0954 87.6631 49.0954 85.8677 49.1215C84.0246 49.1502 83.0782 50.12 83.0339 51.9579C83.0078 52.2955 83.0078 52.6345 83.0339 52.972C83.1147 53.6003 82.8749 53.7724 82.2518 53.7698C76.5998 53.7472 70.9512 53.7472 65.3062 53.7698C64.7561 53.7698 64.5241 53.6447 64.3312 53.0711C63.9759 51.9301 63.2308 50.9503 62.2261 50.3031C61.2215 49.656 60.0214 49.3826 58.8356 49.5308C56.2285 49.8827 54.4036 51.752 54.2185 54.2625C54.1066 55.4829 54.4281 56.7037 55.1265 57.7106C55.825 58.7176 56.8558 59.4463 58.0381 59.7689C59.2203 60.0916 60.4784 59.9875 61.5916 59.4749C62.7047 58.9623 63.6017 58.0741 64.1252 56.966C64.2868 56.6427 64.3859 56.4003 64.8369 56.4029C68.8126 56.4185 72.7909 56.4029 76.7666 56.4029V56.5619C76.5737 56.6923 76.3834 56.8226 76.18 56.9399C70.004 60.389 65.7885 65.4544 63.609 72.1936C63.0876 73.849 63.0876 73.8517 61.294 73.9299C59.5003 74.0081 58.5331 74.9727 58.5227 76.8237C58.5227 78.6173 58.5097 80.4083 58.5227 82.2019C58.5357 83.9956 59.5134 84.9993 61.3565 85.0149C63.1502 85.0323 64.9429 85.0323 66.7348 85.0149C68.6353 84.9993 69.5791 84.0555 69.6025 82.1237C69.6286 80.3649 69.6286 78.6051 69.6025 76.8445C69.5765 74.9205 68.664 73.9768 66.7348 73.9533C65.9527 73.9533 65.8589 73.7474 66.0779 73.0617C67.2796 69.2101 69.4439 65.7287 72.366 62.9465C75.3246 60.0966 78.9902 58.0878 82.9844 57.1276C83.3181 59.328 84.0506 60.1831 85.6878 60.2117C87.6501 60.2448 89.6123 60.2448 91.5745 60.2117C92.9745 60.1883 93.9677 59.3253 94.1033 57.941C94.1815 57.1459 94.4266 57.1276 95.0966 57.3388C103.121 59.852 108.445 65.0973 111.143 73.0513C111.377 73.7474 111.32 73.9559 110.514 73.9664C108.859 73.9898 107.853 74.8371 107.788 76.3544C107.696 78.44 107.699 80.5517 107.788 82.6425C107.85 84.0972 108.869 84.9888 110.319 85.0175C112.314 85.0523 114.313 85.0523 116.315 85.0175C117.783 84.9888 118.81 83.9747 118.839 82.5226C118.879 80.4926 118.879 78.4626 118.839 76.4326C118.838 75.818 118.605 75.2263 118.186 74.7766C117.768 74.3268 117.194 74.0522 116.581 74.0081C116.112 73.9408 115.637 73.9268 115.165 73.9664C114.383 74.0576 114.083 73.7813 113.862 73.0044C111.8 65.8742 107.493 60.5115 100.996 56.9139C100.824 56.82 100.498 56.8278 100.53 56.4263C104.383 56.4263 108.228 56.4446 112.073 56.4107C112.704 56.4107 112.999 56.6036 113.291 57.1615C114.467 59.4088 116.972 60.4047 119.417 59.6695C120.548 59.3449 121.53 58.6373 122.196 57.668C122.862 56.6986 123.17 55.5279 123.067 54.3564C122.887 51.7806 121.065 49.9166 118.39 49.5464ZM59.4195 57.2371C59.0861 57.2433 58.7546 57.1838 58.4442 57.0619C58.1337 56.94 57.8503 56.7582 57.6101 56.5267C57.37 56.2953 57.1778 56.0188 57.0445 55.713C56.9112 55.4073 56.8395 55.0783 56.8334 54.7448V54.6875C56.8116 54.0068 57.0611 53.3453 57.527 52.8485C57.993 52.3518 58.6371 52.0605 59.3179 52.0387C59.9986 52.017 60.66 52.2665 61.1568 52.7324C61.6535 53.1983 61.9448 53.8425 61.9666 54.5232C61.9666 54.5771 61.9666 54.6318 61.9666 54.6875C61.9666 56.1969 60.9394 57.2267 59.4195 57.2371ZM66.3542 76.5916C66.8078 76.5916 66.9225 76.7507 66.9251 77.1782C66.9251 78.6981 66.9564 80.2206 67.0268 81.7405C67.0503 82.3193 66.8078 82.4183 66.3151 82.4001C65.533 82.3714 64.7509 82.4001 63.9844 82.4001C63.0537 82.3558 61.818 82.9058 61.2757 82.288C60.8091 81.7666 61.1063 80.5491 61.0776 79.6392C61.0541 78.8258 61.0593 78.0151 61.0202 77.2043C60.9994 76.7741 61.1402 76.5995 61.586 76.6047C63.1762 76.6151 64.7639 76.6151 66.3542 76.5916ZM90.9957 57.6073C90.1876 57.5734 89.3794 57.6073 88.5686 57.6073V57.6412H87.153C85.7009 57.6595 85.7035 57.6595 85.6774 56.2569C85.6566 55.0107 85.6435 53.7646 85.5966 52.5184C85.5784 52.0413 85.6409 51.765 86.2275 51.7754C87.7917 51.8067 89.3299 51.8041 90.881 51.7754C91.3894 51.7754 91.4989 51.9788 91.5041 52.4324C91.5171 53.9471 91.5484 55.4617 91.611 56.9764C91.6319 57.4587 91.4859 57.6282 90.9957 57.6073ZM115.528 76.5916C116.073 76.5916 116.224 76.7741 116.2 77.2903C116.164 78.0307 116.2 78.7737 116.2 79.5141H116.237C116.237 80.2545 116.216 80.9975 116.237 81.7379C116.253 82.1759 116.195 82.4079 115.658 82.4053C114.107 82.4053 112.556 82.4314 111.007 82.4939C110.452 82.5174 110.324 82.3088 110.327 81.8005C110.342 80.2832 110.327 78.7659 110.288 77.2486C110.269 76.6907 110.473 76.5812 110.979 76.5916C112.494 76.6073 114.01 76.6073 115.528 76.5916ZM117.804 57.2371C117.123 57.2392 116.469 56.9706 115.986 56.4905C115.503 56.0104 115.23 55.3581 115.228 54.677C115.226 53.996 115.494 53.342 115.975 52.859C116.455 52.3759 117.107 52.1034 117.788 52.1013C118.12 52.0992 118.45 52.1627 118.758 52.288C119.066 52.4133 119.346 52.5981 119.583 52.8317C119.819 53.0653 120.007 53.3432 120.136 53.6495C120.266 53.9559 120.333 54.2846 120.335 54.6171V54.6901C120.335 56.2412 119.347 57.2319 117.804 57.2371Z" fill="#3B3F42"/>
<path d="M113.794 33.409C114.533 33.4162 115.258 33.204 115.877 32.7992C116.496 32.3944 116.981 31.8152 117.27 31.1349C117.56 30.4546 117.641 29.7037 117.504 28.9772C117.367 28.2506 117.017 27.5811 116.5 27.0532C115.982 26.5253 115.319 26.1627 114.596 26.0114C113.872 25.8601 113.119 25.9267 112.434 26.203C111.748 26.4792 111.159 26.9527 110.742 27.5634C110.326 28.1741 110.099 28.8947 110.092 29.634V29.6653C110.087 30.1518 110.178 30.6346 110.359 31.086C110.541 31.5374 110.809 31.9487 111.149 32.2964C111.49 32.644 111.895 32.9212 112.343 33.1121C112.79 33.303 113.271 33.4039 113.758 33.409H113.794ZM113.778 28.6199C114.041 28.596 114.302 28.6769 114.505 28.8449C114.707 29.013 114.835 29.2546 114.86 29.5167C114.866 29.574 114.866 29.6316 114.86 29.6888C114.881 29.9507 114.796 30.21 114.626 30.4098C114.455 30.6096 114.212 30.7338 113.951 30.7551H113.867C113.598 30.784 113.327 30.7069 113.114 30.54C112.9 30.373 112.76 30.1294 112.723 29.8609C112.738 29.0475 113.127 28.646 113.778 28.6199Z" fill="#3B3F42"/>
<path d="M104.789 33.409C105.529 33.4074 106.252 33.1864 106.866 32.7739C107.48 32.3613 107.958 31.7758 108.239 31.0915C108.521 30.4072 108.593 29.6548 108.446 28.9297C108.299 28.2045 107.941 27.5391 107.416 27.0178C106.891 26.4965 106.223 26.1427 105.497 26.0011C104.771 25.8596 104.019 25.9367 103.337 26.2227C102.654 26.5086 102.072 26.9907 101.664 27.6077C101.256 28.2247 101.04 28.9489 101.043 29.6888C101.048 30.6785 101.445 31.6259 102.147 32.3232C102.85 33.0206 103.8 33.4111 104.789 33.409ZM104.81 28.5938C105.418 28.7085 105.866 29.0188 105.853 29.707C105.861 29.8383 105.843 29.97 105.801 30.0944C105.758 30.2188 105.691 30.3335 105.604 30.4321C105.517 30.5306 105.411 30.611 105.293 30.6687C105.174 30.7263 105.046 30.7601 104.915 30.7681C104.866 30.772 104.817 30.772 104.769 30.7681C104.507 30.7882 104.248 30.7037 104.049 30.5332C103.849 30.3626 103.726 30.1198 103.705 29.8582C103.7 29.8027 103.7 29.7469 103.705 29.6914C103.705 29.0266 104.138 28.6694 104.81 28.5964V28.5938Z" fill="#3B3F42"/>
<path d="M122.77 33.409C123.509 33.4172 124.234 33.206 124.854 32.8022C125.473 32.3984 125.958 31.8201 126.249 31.1403C126.54 30.4606 126.622 29.7099 126.486 28.9832C126.35 28.2566 126.002 27.5866 125.485 27.0578C124.969 26.5291 124.307 26.1655 123.583 26.0128C122.86 25.8602 122.108 25.9255 121.421 26.2003C120.735 26.4752 120.146 26.9474 119.728 27.5572C119.31 28.167 119.082 28.887 119.073 29.6262C119.067 30.1174 119.158 30.6049 119.341 31.0609C119.524 31.5168 119.794 31.9324 120.138 32.2837C120.481 32.635 120.89 32.9152 121.342 33.1083C121.794 33.3013 122.279 33.4035 122.77 33.409ZM122.809 28.6121C122.942 28.6017 123.075 28.6176 123.201 28.6588C123.328 28.7 123.445 28.7657 123.546 28.8521C123.647 28.9386 123.73 29.0441 123.79 29.1626C123.85 29.2811 123.886 29.4103 123.896 29.5428C123.899 29.5914 123.899 29.6401 123.896 29.6888C123.896 30.3588 123.453 30.6873 122.89 30.7994C122.155 30.729 121.743 30.3588 121.735 29.7044C121.713 29.4376 121.797 29.1728 121.969 28.9681C122.142 28.7633 122.389 28.6353 122.655 28.6121H122.809Z" fill="#3B3F42"/>
</g>
<defs>
<clipPath id="clip0_4_40">
<rect width="100" height="100.109" fill="white" transform="translate(33 19)"/>
</clipPath>
</defs>
</svg>
