<svg id="Layer_1" data-name="Layer 1" xmlns="http://www.w3.org/2000/svg" xmlns:xlink="http://www.w3.org/1999/xlink" viewBox="0 0 137 118"><defs><style>.cls-1{fill:#fff;stroke:#fff;}.cls-2{fill:#f37900;fill-opacity:0.47;}.cls-3{mask:url(#mask);}.cls-4,.cls-5{fill:#045666;}.cls-4{stroke:#045666;}</style><mask id="mask" x="43.5" y="20.5" width="94" height="94.2" maskUnits="userSpaceOnUse"><g id="mask0_98_39" data-name="mask0 98 39"><path class="cls-1" d="M137,21H44v93.1h93Z"/></g></mask></defs><title>ui-design-icon</title><circle class="cls-2" cx="58.97" cy="58.97" r="58.97"/><g class="cls-3"><path class="cls-4" d="M136.3,27.13a7.34,7.34,0,0,0-.1-1.32c-.55-2.54-2.49-4-5.4-4H65.65c-1.8,0-3.59,0-5.38,0a4.92,4.92,0,0,0-5.18,5.24c0,2.18,0,4.34,0,6.51,0,.53-.13.7-.67.69-1.29,0-2.58,0-3.88,0a5,5,0,0,0-5.29,5.33v61a5.11,5.11,0,0,0,1.56,3.9,5.42,5.42,0,0,0,4,1.36c10.39,0,20.77,0,31.16,0,.71,0,1,.14,1,.91-.06,1.92,0,3.84,0,5.76,0,1.3.4,1.7,1.7,1.7h22.28c1.23,0,1.63-.42,1.64-1.66,0-1.94,0-3.9,0-5.86,0-.73.22-.86.9-.86,4,0,8.06.05,12.09,0a4.85,4.85,0,0,0,5-5.09c0-2.2,0-4.41,0-6.61,0-.6.17-.74.74-.73,1.29,0,2.58,0,3.88,0a4.92,4.92,0,0,0,5.22-5.29Q136.31,57.62,136.3,27.13ZM57.58,26.7a2.34,2.34,0,0,1,2.24-2.35,10.59,10.59,0,0,1,1.13,0h69.68c2.42,0,3.23.8,3.23,3.21,0,3.09,0,6.17,0,9.25,0,.68-.19.82-.84.82q-22.56,0-45.13,0a1.55,1.55,0,0,1-.73-.15,1.69,1.69,0,0,1-.58-.45c-1.53-1.63-3.11-3.21-4.64-4.85a2.82,2.82,0,0,0-1.06-.74,2.9,2.9,0,0,0-1.27-.23c-3.78,0-7.56,0-11.33,0a2.32,2.32,0,0,0-2.61,2.62c0,1.07,0,2.14,0,3.21,0,.46-.14.59-.59.58q-3.5,0-7,0c-.48,0-.57-.16-.57-.6C57.56,33.56,57.53,30.13,57.58,26.7ZM82.89,99.63c0,.91-.06,1.83,0,2.73s-.12,1-1,1c-7.18,0-14.35,0-21.53,0H50.66c-2,0-2.93-.91-2.93-2.93V39.84c0-2.22.87-3.1,3.07-3.11,1.16,0,2.33.05,3.49,0,.69,0,.82.22.81.85,0,2.55,0,5.09,0,7.65V87.89c0,3.57,2,5.54,5.54,5.54,8.34,0,16.68,0,25,0,1,0,1.38.32,1.52,1.19,0,.12,0,.24.07.37.3,1.54.3,1.54-1.27,1.55C83.81,96.52,82.89,97.45,82.89,99.63ZM94.47,74.24c0,.48-.32.55-.61.73A3.77,3.77,0,0,0,92,79.3a3.68,3.68,0,0,0,3.63,2.86A3.87,3.87,0,0,0,98,81.41a3.82,3.82,0,0,0,1.39-2A3.7,3.7,0,0,0,97.51,75a1,1,0,0,1-.6-1c0-1.67,0-3.33,0-5A.42.42,0,0,1,97,68.8c.3,0,.32.34.43.53l10,18c.28.51.34.7-.33.93a8.12,8.12,0,0,0-5.54,7.56c0,.62-.22.7-.76.69-3.43,0-6.86,0-10.29,0-.31,0-.68.14-.7-.45-.15-4.14-2.37-6.73-6.21-8.16L94.24,68.76l.22,0C94.46,70.62,94.44,72.43,94.47,74.24Zm1.18,2.67a1.17,1.17,0,0,1,.52.09,1.37,1.37,0,0,1,.76.71,1.58,1.58,0,0,1,.12.52v0a1.44,1.44,0,0,1-1.83,1.38,1.22,1.22,0,0,1-.43-.24,1.3,1.3,0,0,1-.31-.39,1.07,1.07,0,0,1-.14-.47.54.54,0,0,1,0-.18,1.35,1.35,0,0,1,.36-1,1.4,1.4,0,0,1,.94-.45Zm9.58,34.82c-3.18,0-6.35,0-9.53,0s-6.35,0-9.52,0c-.65,0-.85-.16-.84-.83.06-3.75.09-7.48.1-11.22,0-.56.11-.75.72-.75q9.57,0,19.16,0c.55,0,.76.11.75.73q0,5.66,0,11.31c0,.71-.27.77-.83.77Zm18.79-11a2.44,2.44,0,0,1-2.71,2.67l-12.08,0c-.55,0-.78-.1-.75-.71.06-1.1,0-2.21,0-3.31a2.57,2.57,0,0,0-2.85-2.86c-1.86,0-1.86-.06-1.44-1.89a1.33,1.33,0,0,1,1.59-1.23c2.86.08,5.72,0,8.59,0s5.92,0,8.87,0c.62,0,.8.15.79.78,0,2.18,0,4.36,0,6.53Zm9.82-12.85c0,2.24-.85,3.11-3.05,3.11H108.32c-.27,0-.54,0-.85,0,.15-.32.42-.33.64-.41,2.12-.73,2.69-2.21,1.59-4.19q-5.52-10-11-19.92c-.4-.72-.79-1.44-1.2-2.14-.91-1.57-2.62-1.61-3.49,0Q87.72,75.38,81.52,86.58A2.54,2.54,0,0,0,83,90.43l.94.34a1.23,1.23,0,0,1-.87.17H60.54c-2.11,0-3-.89-3-3q0-23.52,0-47c0-.82.25-1,1-1,2.33,0,4.66,0,7,0a2.32,2.32,0,0,0,2.63-2.6c0-1,0-2.07,0-3.11,0-.51.11-.7.66-.69q5.29,0,10.57,0a1.29,1.29,0,0,1,.58.12,1.21,1.21,0,0,1,.47.36c1.52,1.6,3.08,3.15,4.57,4.78A3.46,3.46,0,0,0,87.72,40c15,0,30.09,0,45.13,0,.8,0,1,.16,1,1q-.06,23.43,0,46.84Z"/><path class="cls-4" d="M123.41,49.41a4.68,4.68,0,0,0-5.1,3.15,1,1,0,0,1-1.11.78c-4.91,0-9.81,0-14.72,0-1.62,0-1.62,0-1.64-1.6A2.42,2.42,0,0,0,98.17,49c-1.67,0-3.33,0-5,0a2.4,2.4,0,0,0-2.64,2.64,7.37,7.37,0,0,0,0,.94c.08.59-.15.75-.73.74q-7.87,0-15.75,0a.77.77,0,0,1-.91-.65,4.84,4.84,0,0,0-9.41,1.11A4.88,4.88,0,0,0,64.58,57,4.85,4.85,0,0,0,73,56.31c.15-.3.24-.53.66-.53,3.7,0,7.4,0,11.09,0v.15c-.18.12-.35.24-.54.35A24.26,24.26,0,0,0,72.47,70.47C72,72,72,72,70.31,72.08a2.42,2.42,0,0,0-2.57,2.69c0,1.67,0,3.34,0,5a2.38,2.38,0,0,0,2.63,2.61c1.67,0,3.34,0,5,0A2.38,2.38,0,0,0,78,79.7c0-1.63,0-3.27,0-4.91a2.38,2.38,0,0,0-2.67-2.69c-.72,0-.81-.19-.61-.82a22,22,0,0,1,5.85-9.41,21.42,21.42,0,0,1,9.88-5.41c.31,2,1,2.84,2.51,2.86,1.82,0,3.65,0,5.47,0a2.25,2.25,0,0,0,2.36-2.11c.07-.74.3-.75.92-.56a21.88,21.88,0,0,1,14.92,14.62c.22.64.17.84-.58.85a2.25,2.25,0,0,0-2.54,2.22c-.08,1.94-.08,3.9,0,5.85a2.22,2.22,0,0,0,2.36,2.2c1.85,0,3.71,0,5.57,0a2.28,2.28,0,0,0,2.35-2.32c0-1.88,0-3.77,0-5.66a2.27,2.27,0,0,0-.61-1.54,2.24,2.24,0,0,0-1.49-.71,5.31,5.31,0,0,0-1.32,0c-.72.08-1-.18-1.21-.9a24.18,24.18,0,0,0-12-15c-.16-.09-.47-.08-.44-.46,3.59,0,7.16,0,10.74,0a1.08,1.08,0,0,1,1.13.7,4.76,4.76,0,0,0,5.7,2.33,4.71,4.71,0,0,0,3.39-4.94A4.76,4.76,0,0,0,123.41,49.41ZM68.57,56.56a2.57,2.57,0,0,1-.91-.16,2.49,2.49,0,0,1-.77-.5,2.37,2.37,0,0,1-.53-.76,2.3,2.3,0,0,1-.19-.9v-.05a2.38,2.38,0,0,1,.64-1.71,2.35,2.35,0,0,1,1.67-.76,2.43,2.43,0,0,1,1.71.65A2.38,2.38,0,0,1,70.94,54v.16A2.26,2.26,0,0,1,68.57,56.56Zm6.45,18c.42,0,.53.15.53.54,0,1.42,0,2.83.1,4.25,0,.53-.21.63-.67.61-.72,0-1.45,0-2.16,0-.87,0-2,.47-2.52-.1s-.16-1.62-.19-2.47,0-1.51,0-2.26c0-.4.11-.56.53-.56C72.06,74.58,73.54,74.58,75,74.56ZM97.94,56.9c-.76,0-1.51,0-2.26,0v0H94.36C93,57,93,57,93,55.65s0-2.32-.07-3.48c0-.44,0-.7.58-.69,1.46,0,2.89,0,4.33,0,.47,0,.57.19.58.61,0,1.41,0,2.82.1,4.23C98.53,56.76,98.39,56.92,97.94,56.9Zm22.81,17.66c.51,0,.65.17.63.65,0,.69,0,1.38,0,2.07h0c0,.68,0,1.38,0,2.06,0,.41,0,.63-.54.62q-2.16,0-4.32.09c-.52,0-.64-.18-.64-.65,0-1.41,0-2.82,0-4.23,0-.52.17-.62.64-.61Zm2.12-18a2.39,2.39,0,0,1-1.69-.7,2.39,2.39,0,0,1,1.67-4.08,2.3,2.3,0,0,1,.9.18,2.18,2.18,0,0,1,.77.5,2.45,2.45,0,0,1,.52.76,2.33,2.33,0,0,1,.18.9v.07A2.22,2.22,0,0,1,122.87,56.56Z"/><path class="cls-5" d="M119.14,34.4a3.49,3.49,0,0,0,1.93-.57,3.45,3.45,0,0,0,1.3-1.55,3.52,3.52,0,0,0,.22-2,3.5,3.5,0,0,0-2.71-2.76,3.46,3.46,0,0,0-2,.18A3.4,3.4,0,0,0,116.3,29a3.5,3.5,0,0,0-.61,1.93v0a3.52,3.52,0,0,0,.25,1.32,3.37,3.37,0,0,0,.74,1.12,3.28,3.28,0,0,0,1.11.76,3.46,3.46,0,0,0,1.31.28Zm0-4.46a1,1,0,0,1,.68.21.91.91,0,0,1,.33.63v.16a.92.92,0,0,1-.22.67.94.94,0,0,1-.63.32h-.07a1,1,0,0,1-.71-.2,1,1,0,0,1-.36-.63C118.15,30.34,118.52,30,119.12,29.94Z"/><path class="cls-5" d="M110.76,34.4a3.48,3.48,0,0,0,3.4-4.17,3.47,3.47,0,0,0-6.88.71,3.48,3.48,0,0,0,3.48,3.46Zm0-4.48c.57.11,1,.4,1,1a.9.9,0,0,1,0,.36,1,1,0,0,1-.18.31.89.89,0,0,1-.29.22,1.06,1.06,0,0,1-.35.09h-.14a.92.92,0,0,1-.67-.22.94.94,0,0,1-.32-.62v-.16c0-.62.41-1,1-1Z"/><path class="cls-5" d="M127.49,34.4a3.51,3.51,0,0,0,3.23-2.11,3.47,3.47,0,0,0-2.48-4.77,3.54,3.54,0,0,0-2,.17,3.51,3.51,0,0,0-2.18,3.19,3.35,3.35,0,0,0,.25,1.33,3.48,3.48,0,0,0,1.86,1.91A3.56,3.56,0,0,0,127.49,34.4Zm0-4.46a.94.94,0,0,1,.37,0,1.14,1.14,0,0,1,.32.18.89.89,0,0,1,.22.29.88.88,0,0,1,.1.35.33.33,0,0,1,0,.14,1,1,0,0,1-.93,1c-.69-.06-1.07-.41-1.08-1a.94.94,0,0,1,.86-1Z"/></g></svg>